<?xml version="1.0" encoding="iso-8859-1"?>
<!-- Generator: Adobe Illustrator 19.0.0, SVG Export Plug-In . SVG Version: 6.00 Build 0)  -->
<svg version="1.1" id="Capa_1" xmlns="http://www.w3.org/2000/svg" xmlns:xlink="http://www.w3.org/1999/xlink" x="0px" y="0px"
	 viewBox="0 0 490 490" style="enable-background:new 0 0 490 490;" xml:space="preserve">
<g>
	<path d="M490,95.15c-0.8-62.1-123.4-94.2-245-94.2S0.8,33.05,0,95.15c0,0.1,0,299.4,0,299.4c0,62.3,122.5,94.5,244,94.5
		s244-32.2,246-95.5C490,393.45,490,95.25,490,95.15z M245,40.45c126.1,0,204.3,35.4,204.3,54.2s-78.2,54.2-204.3,54.2
		c-127.2,0-204.3-35.4-204.3-54.2C40.7,75.95,118.9,40.45,245,40.45z M448.5,393.45c0,18.7-77.9,54-203.5,54
		c-126.7,0-203.5-35.3-203.5-54v-93.2c46.2,26,124.5,39.2,202.5,39.2c78.8,0,158-13.5,204.5-40.1V393.45z M245,298.95
		c-126.7,0-203.5-35.3-203.5-54v-93.8c46.3,26.1,125.1,39.5,203.5,39.5s157.1-13.8,203.5-39.9v94.3
		C448.5,263.65,370.6,298.95,245,298.95z"/>
</g>
<g>
</g>
<g>
</g>
<g>
</g>
<g>
</g>
<g>
</g>
<g>
</g>
<g>
</g>
<g>
</g>
<g>
</g>
<g>
</g>
<g>
</g>
<g>
</g>
<g>
</g>
<g>
</g>
<g>
</g>
</svg>
