<?xml version="1.0" encoding="iso-8859-1"?>
<!-- Generator: Adobe Illustrator 18.0.0, SVG Export Plug-In . SVG Version: 6.00 Build 0)  -->
<!DOCTYPE svg PUBLIC "-//W3C//DTD SVG 1.1//EN" "http://www.w3.org/Graphics/SVG/1.1/DTD/svg11.dtd">
<svg version="1.1" id="Capa_1" xmlns="http://www.w3.org/2000/svg" xmlns:xlink="http://www.w3.org/1999/xlink" x="0px" y="0px"
	 viewBox="0 0 226.619 226.619" style="enable-background:new 0 0 226.619 226.619;" xml:space="preserve">
<path d="M6.374,165.281H80.65v14.559l-8.985,16.408c-0.246,0.449-0.375,0.954-0.375,1.466v4.069c0,1.686,1.367,3.052,3.052,3.052
	h77.936c1.686,0,3.052-1.367,3.052-3.052v-4.069c0-0.512-0.129-1.017-0.375-1.466l-8.985-16.408v-14.559h74.276
	c3.522,0,6.374-2.855,6.374-6.374V28.157c0-3.52-2.853-6.374-6.374-6.374H6.374C2.853,21.783,0,24.637,0,28.157v130.751
	C0,162.427,2.853,165.281,6.374,165.281z M18.739,38.045H207.88v110.973H18.739V38.045z"/>
<g>
</g>
<g>
</g>
<g>
</g>
<g>
</g>
<g>
</g>
<g>
</g>
<g>
</g>
<g>
</g>
<g>
</g>
<g>
</g>
<g>
</g>
<g>
</g>
<g>
</g>
<g>
</g>
<g>
</g>
</svg>
