<?xml version="1.0" encoding="UTF-8" standalone="no"?>
<!DOCTYPE svg PUBLIC "-//W3C//DTD SVG 1.1//EN"
 "http://www.w3.org/Graphics/SVG/1.1/DTD/svg11.dtd">
<!-- Generated by graphviz version 2.38.0 (20140413.2041)
 -->
<!-- Title: StandardStreams Pages: 1 -->
<svg width="258pt" height="153pt"
 viewBox="0.00 0.00 258.39 153.00" xmlns="http://www.w3.org/2000/svg" xmlns:xlink="http://www.w3.org/1999/xlink">
<g id="graph0" class="graph" transform="scale(1 1) rotate(0) translate(4 149)">
<title>StandardStreams</title>
<polygon fill="white" stroke="none" points="-4,4 -4,-149 254.393,-149 254.393,4 -4,4"/>
<g id="clust1" class="cluster"><title>clusterTerminal</title>
<polygon fill="lightgrey" stroke="lightgrey" points="154.393,-8 154.393,-137 245.393,-137 245.393,-8 154.393,-8"/>
<text text-anchor="middle" x="199.893" y="-121.8" font-family="Times,serif" font-size="14.00">Text terminal</text>
</g>
<!-- Keyboard -->
<g id="node1" class="node"><title>Keyboard</title>
<path fill="white" stroke="black" stroke-width="2" d="M222.393,-106C222.393,-106 176.393,-106 176.393,-106 170.393,-106 164.393,-100 164.393,-94 164.393,-94 164.393,-82 164.393,-82 164.393,-76 170.393,-70 176.393,-70 176.393,-70 222.393,-70 222.393,-70 228.393,-70 234.393,-76 234.393,-82 234.393,-82 234.393,-94 234.393,-94 234.393,-100 228.393,-106 222.393,-106"/>
<text text-anchor="middle" x="199.393" y="-84.3" font-family="Times,serif" font-size="14.00">Keyboard</text>
</g>
<!-- Process -->
<g id="node3" class="node"><title>Process</title>
<ellipse fill="none" stroke="black" cx="37.6967" cy="-50" rx="37.8943" ry="18"/>
<text text-anchor="middle" x="37.6967" y="-46.3" font-family="Times,serif" font-size="14.00">Process</text>
</g>
<!-- Keyboard&#45;&gt;Process -->
<g id="edge1" class="edge"><title>Keyboard&#45;&gt;Process</title>
<path fill="none" stroke="black" d="M164.294,-80.4402C143.727,-75.8222 117.019,-69.7227 93.3933,-64 89.3207,-63.0135 85.083,-61.9661 80.8489,-60.9056"/>
<polygon fill="black" stroke="black" points="81.608,-57.4875 71.0552,-58.4299 79.8925,-64.274 81.608,-57.4875"/>
<text text-anchor="middle" x="118.893" y="-79.8" font-family="Times,serif" font-size="14.00">#0 stdin</text>
</g>
<!-- Display -->
<g id="node2" class="node"><title>Display</title>
<path fill="white" stroke="black" stroke-width="2" d="M216.893,-52C216.893,-52 181.893,-52 181.893,-52 175.893,-52 169.893,-46 169.893,-40 169.893,-40 169.893,-28 169.893,-28 169.893,-22 175.893,-16 181.893,-16 181.893,-16 216.893,-16 216.893,-16 222.893,-16 228.893,-22 228.893,-28 228.893,-28 228.893,-40 228.893,-40 228.893,-46 222.893,-52 216.893,-52"/>
<text text-anchor="middle" x="199.393" y="-30.3" font-family="Times,serif" font-size="14.00">Display</text>
</g>
<!-- Process&#45;&gt;Display -->
<g id="edge2" class="edge"><title>Process&#45;&gt;Display</title>
<path fill="none" stroke="black" d="M74.9343,-46.3694C100.169,-43.841 133.788,-40.4728 159.571,-37.8896"/>
<polygon fill="black" stroke="black" points="160.138,-41.3504 169.739,-36.8709 159.44,-34.3853 160.138,-41.3504"/>
<text text-anchor="middle" x="118.893" y="-48.8" font-family="Times,serif" font-size="14.00">#1 stdout</text>
</g>
<!-- Process&#45;&gt;Display -->
<g id="edge3" class="edge"><title>Process&#45;&gt;Display</title>
<path fill="none" stroke="black" d="M60.3183,-35.3996C69.9948,-29.7139 81.8156,-23.8794 93.3933,-21 114.948,-15.6393 139.567,-18.2434 159.546,-22.4839"/>
<polygon fill="black" stroke="black" points="158.996,-25.9496 169.531,-24.8171 160.589,-19.1333 158.996,-25.9496"/>
<text text-anchor="middle" x="118.893" y="-24.8" font-family="Times,serif" font-size="14.00">#2 stderr</text>
</g>
</g>
</svg>
